<mxfile host="app.diagrams.net" modified="2021-05-31T07:34:18.770Z" agent="5.0 (Windows NT 10.0; Win64; x64) AppleWebKit/537.36 (KHTML, like Gecko) Chrome/90.0.4430.72 YaBrowser/21.5.1.330 Yowser/2.5 Safari/537.36" etag="0rpiJTeJOintK5oEvPjx" version="14.7.3" type="github">
  <diagram id="kgpKYQtTHZ0yAKxKKP6v" name="Page-1">
    <mxGraphModel dx="1359" dy="792" grid="1" gridSize="10" guides="1" tooltips="1" connect="1" arrows="1" fold="1" page="1" pageScale="1" pageWidth="1100" pageHeight="850" background="none" math="0" shadow="0">
      <root>
        <mxCell id="0" />
        <mxCell id="1" parent="0" />
        <mxCell id="EgkcAiieyC2Qmeuv6FJ1-42" value="Результата" style="verticalAlign=bottom;endArrow=open;shadow=0;strokeWidth=1;entryX=0.964;entryY=0.457;entryDx=0;entryDy=0;entryPerimeter=0;dashed=1;endFill=0;" edge="1" parent="1" source="3nuBFxr9cyL0pnOWT2aG-5">
          <mxGeometry relative="1" as="geometry">
            <mxPoint x="368.96000000000004" y="511.44000000000005" as="sourcePoint" />
            <mxPoint x="214.99999999999997" y="510" as="targetPoint" />
          </mxGeometry>
        </mxCell>
        <mxCell id="EgkcAiieyC2Qmeuv6FJ1-35" value="Проверить корректность&#xa; данных" style="verticalAlign=bottom;endArrow=block;shadow=0;strokeWidth=1;entryX=1.037;entryY=0.709;entryDx=0;entryDy=0;entryPerimeter=0;" edge="1" parent="1" target="EgkcAiieyC2Qmeuv6FJ1-34">
          <mxGeometry x="-0.2277" y="40" relative="1" as="geometry">
            <mxPoint x="425" y="424" as="sourcePoint" />
            <mxPoint x="623.3299999999999" y="424.55000000000007" as="targetPoint" />
            <Array as="points">
              <mxPoint x="460" y="424" />
              <mxPoint x="460" y="445" />
            </Array>
            <mxPoint as="offset" />
          </mxGeometry>
        </mxCell>
        <mxCell id="EgkcAiieyC2Qmeuv6FJ1-31" value="Возврат результата" style="verticalAlign=bottom;endArrow=open;shadow=0;strokeWidth=1;dashed=1;endFill=0;" edge="1" parent="1">
          <mxGeometry relative="1" as="geometry">
            <mxPoint x="419.5" y="370" as="sourcePoint" />
            <mxPoint x="215" y="370" as="targetPoint" />
          </mxGeometry>
        </mxCell>
        <mxCell id="3nuBFxr9cyL0pnOWT2aG-1" value="Клиент" style="shape=umlLifeline;perimeter=lifelinePerimeter;container=1;collapsible=0;recursiveResize=0;rounded=0;shadow=0;strokeWidth=1;" parent="1" vertex="1">
          <mxGeometry x="160" y="80" width="100" height="550" as="geometry" />
        </mxCell>
        <mxCell id="3nuBFxr9cyL0pnOWT2aG-2" value="" style="points=[];perimeter=orthogonalPerimeter;rounded=0;shadow=0;strokeWidth=1;" parent="3nuBFxr9cyL0pnOWT2aG-1" vertex="1">
          <mxGeometry x="45" y="70" width="10" height="50" as="geometry" />
        </mxCell>
        <mxCell id="EgkcAiieyC2Qmeuv6FJ1-16" value="" style="points=[];perimeter=orthogonalPerimeter;rounded=0;shadow=0;strokeWidth=1;" vertex="1" parent="3nuBFxr9cyL0pnOWT2aG-1">
          <mxGeometry x="45" y="200" width="10" height="50" as="geometry" />
        </mxCell>
        <mxCell id="EgkcAiieyC2Qmeuv6FJ1-23" value="" style="points=[];perimeter=orthogonalPerimeter;rounded=0;shadow=0;strokeWidth=1;" vertex="1" parent="3nuBFxr9cyL0pnOWT2aG-1">
          <mxGeometry x="45" y="260" width="10" height="50" as="geometry" />
        </mxCell>
        <mxCell id="EgkcAiieyC2Qmeuv6FJ1-27" value="" style="points=[];perimeter=orthogonalPerimeter;rounded=0;shadow=0;strokeWidth=1;" vertex="1" parent="3nuBFxr9cyL0pnOWT2aG-1">
          <mxGeometry x="45" y="330" width="10" height="50" as="geometry" />
        </mxCell>
        <mxCell id="EgkcAiieyC2Qmeuv6FJ1-37" value="" style="points=[];perimeter=orthogonalPerimeter;rounded=0;shadow=0;strokeWidth=1;" vertex="1" parent="3nuBFxr9cyL0pnOWT2aG-1">
          <mxGeometry x="45" y="400" width="10" height="50" as="geometry" />
        </mxCell>
        <mxCell id="3nuBFxr9cyL0pnOWT2aG-5" value="Сервер" style="shape=umlLifeline;perimeter=lifelinePerimeter;container=1;collapsible=0;recursiveResize=0;rounded=0;shadow=0;strokeWidth=1;" parent="1" vertex="1">
          <mxGeometry x="370" y="90" width="100" height="510" as="geometry" />
        </mxCell>
        <mxCell id="3nuBFxr9cyL0pnOWT2aG-6" value="" style="points=[];perimeter=orthogonalPerimeter;rounded=0;shadow=0;strokeWidth=1;" parent="3nuBFxr9cyL0pnOWT2aG-5" vertex="1">
          <mxGeometry x="45" y="80" width="10" height="60" as="geometry" />
        </mxCell>
        <mxCell id="EgkcAiieyC2Qmeuv6FJ1-29" value="" style="points=[];perimeter=orthogonalPerimeter;rounded=0;shadow=0;strokeWidth=1;" vertex="1" parent="3nuBFxr9cyL0pnOWT2aG-5">
          <mxGeometry x="45" y="250" width="10" height="60" as="geometry" />
        </mxCell>
        <mxCell id="3nuBFxr9cyL0pnOWT2aG-8" value="Запрос данных для глобуса" style="verticalAlign=bottom;endArrow=block;entryX=0;entryY=0;shadow=0;strokeWidth=1;" parent="1" source="3nuBFxr9cyL0pnOWT2aG-2" target="3nuBFxr9cyL0pnOWT2aG-6" edge="1">
          <mxGeometry relative="1" as="geometry">
            <mxPoint x="280" y="170" as="sourcePoint" />
          </mxGeometry>
        </mxCell>
        <mxCell id="3nuBFxr9cyL0pnOWT2aG-9" value="Возврат результата" style="verticalAlign=bottom;endArrow=open;shadow=0;strokeWidth=1;exitX=-0.119;exitY=0.329;exitDx=0;exitDy=0;exitPerimeter=0;dashed=1;endFill=0;" parent="1" source="3nuBFxr9cyL0pnOWT2aG-6" edge="1">
          <mxGeometry relative="1" as="geometry">
            <mxPoint x="245" y="210" as="sourcePoint" />
            <mxPoint x="217" y="191" as="targetPoint" />
          </mxGeometry>
        </mxCell>
        <mxCell id="EgkcAiieyC2Qmeuv6FJ1-1" value="Пользователь" style="shape=umlActor;verticalLabelPosition=bottom;verticalAlign=top;html=1;outlineConnect=0;" vertex="1" parent="1">
          <mxGeometry x="30" y="60" width="30" height="60" as="geometry" />
        </mxCell>
        <mxCell id="EgkcAiieyC2Qmeuv6FJ1-6" value="" style="endArrow=none;dashed=1;html=1;" edge="1" parent="1" target="EgkcAiieyC2Qmeuv6FJ1-1">
          <mxGeometry width="50" height="50" relative="1" as="geometry">
            <mxPoint x="45" y="400" as="sourcePoint" />
            <mxPoint x="90" y="250" as="targetPoint" />
          </mxGeometry>
        </mxCell>
        <mxCell id="EgkcAiieyC2Qmeuv6FJ1-7" value="" style="rounded=0;whiteSpace=wrap;html=1;" vertex="1" parent="1">
          <mxGeometry x="40" y="160" width="10" height="630" as="geometry" />
        </mxCell>
        <mxCell id="EgkcAiieyC2Qmeuv6FJ1-8" value="Взаимодействие с &#xa;глобусом" style="verticalAlign=bottom;endArrow=block;shadow=0;strokeWidth=1;entryX=-0.02;entryY=0.318;entryDx=0;entryDy=0;entryPerimeter=0;" edge="1" parent="1" target="EgkcAiieyC2Qmeuv6FJ1-13">
          <mxGeometry relative="1" as="geometry">
            <mxPoint x="50" y="230.44" as="sourcePoint" />
            <mxPoint x="203" y="230" as="targetPoint" />
          </mxGeometry>
        </mxCell>
        <mxCell id="EgkcAiieyC2Qmeuv6FJ1-9" value="Возврат отображения " style="verticalAlign=bottom;endArrow=open;shadow=0;strokeWidth=1;dashed=1;endFill=0;" edge="1" parent="1" source="3nuBFxr9cyL0pnOWT2aG-2">
          <mxGeometry x="-0.0207" relative="1" as="geometry">
            <mxPoint x="60" y="180" as="sourcePoint" />
            <mxPoint x="51" y="200" as="targetPoint" />
            <mxPoint as="offset" />
          </mxGeometry>
        </mxCell>
        <mxCell id="EgkcAiieyC2Qmeuv6FJ1-10" value="Переход на главную страницу" style="verticalAlign=bottom;endArrow=block;shadow=0;strokeWidth=1;entryX=0.021;entryY=0.443;entryDx=0;entryDy=0;entryPerimeter=0;" edge="1" parent="1" target="3nuBFxr9cyL0pnOWT2aG-2">
          <mxGeometry relative="1" as="geometry">
            <mxPoint x="50" y="170" as="sourcePoint" />
            <mxPoint x="200" y="170" as="targetPoint" />
          </mxGeometry>
        </mxCell>
        <mxCell id="EgkcAiieyC2Qmeuv6FJ1-12" value="return" style="verticalAlign=bottom;endArrow=open;dashed=1;endSize=8;exitX=0;exitY=0.95;shadow=0;strokeWidth=1;" edge="1" parent="1">
          <mxGeometry relative="1" as="geometry">
            <mxPoint x="569.9999999999998" y="160" as="targetPoint" />
            <mxPoint x="769.9999999999998" y="160" as="sourcePoint" />
          </mxGeometry>
        </mxCell>
        <mxCell id="EgkcAiieyC2Qmeuv6FJ1-14" value="Возврат отображения" style="verticalAlign=bottom;endArrow=open;shadow=0;strokeWidth=1;entryX=0.964;entryY=0.457;entryDx=0;entryDy=0;entryPerimeter=0;dashed=1;endFill=0;exitX=-0.14;exitY=0.787;exitDx=0;exitDy=0;exitPerimeter=0;" edge="1" parent="1" source="EgkcAiieyC2Qmeuv6FJ1-27" target="EgkcAiieyC2Qmeuv6FJ1-7">
          <mxGeometry relative="1" as="geometry">
            <mxPoint x="200" y="251" as="sourcePoint" />
            <mxPoint x="214.8" y="240.89999999999998" as="targetPoint" />
          </mxGeometry>
        </mxCell>
        <mxCell id="EgkcAiieyC2Qmeuv6FJ1-13" value="" style="points=[];perimeter=orthogonalPerimeter;rounded=0;shadow=0;strokeWidth=1;" vertex="1" parent="1">
          <mxGeometry x="205" y="215" width="10" height="50" as="geometry" />
        </mxCell>
        <mxCell id="EgkcAiieyC2Qmeuv6FJ1-17" value="Переход к списку постов" style="verticalAlign=bottom;endArrow=block;shadow=0;strokeWidth=1;entryX=-0.02;entryY=0.318;entryDx=0;entryDy=0;entryPerimeter=0;" edge="1" parent="1">
          <mxGeometry relative="1" as="geometry">
            <mxPoint x="50.2" y="290.00000000000006" as="sourcePoint" />
            <mxPoint x="204.99999999999994" y="290.46" as="targetPoint" />
          </mxGeometry>
        </mxCell>
        <mxCell id="EgkcAiieyC2Qmeuv6FJ1-19" value="Запрос постов из БД" style="verticalAlign=bottom;endArrow=block;shadow=0;strokeWidth=1;entryX=-0.028;entryY=0.17;entryDx=0;entryDy=0;entryPerimeter=0;" edge="1" parent="1" target="EgkcAiieyC2Qmeuv6FJ1-18">
          <mxGeometry relative="1" as="geometry">
            <mxPoint x="215.20000000000005" y="290" as="sourcePoint" />
            <mxPoint x="410" y="290" as="targetPoint" />
          </mxGeometry>
        </mxCell>
        <mxCell id="EgkcAiieyC2Qmeuv6FJ1-20" value="Возврат результата" style="verticalAlign=bottom;endArrow=open;shadow=0;strokeWidth=1;dashed=1;endFill=0;" edge="1" parent="1" source="3nuBFxr9cyL0pnOWT2aG-5">
          <mxGeometry relative="1" as="geometry">
            <mxPoint x="411.81000000000006" y="309.36999999999995" as="sourcePoint" />
            <mxPoint x="215" y="310.63" as="targetPoint" />
          </mxGeometry>
        </mxCell>
        <mxCell id="EgkcAiieyC2Qmeuv6FJ1-22" value="Возврат отображения " style="verticalAlign=bottom;endArrow=open;shadow=0;strokeWidth=1;entryX=1.183;entryY=0.181;entryDx=0;entryDy=0;entryPerimeter=0;dashed=1;endFill=0;" edge="1" parent="1">
          <mxGeometry x="-0.0207" relative="1" as="geometry">
            <mxPoint x="203.17" y="309.80000000000007" as="sourcePoint" />
            <mxPoint x="50.00000000000004" y="309.80000000000007" as="targetPoint" />
            <mxPoint as="offset" />
          </mxGeometry>
        </mxCell>
        <mxCell id="EgkcAiieyC2Qmeuv6FJ1-24" value="Переход из списка к посту" style="verticalAlign=bottom;endArrow=block;shadow=0;strokeWidth=1;entryX=-0.02;entryY=0.318;entryDx=0;entryDy=0;entryPerimeter=0;" edge="1" parent="1">
          <mxGeometry relative="1" as="geometry">
            <mxPoint x="50.200000000000045" y="350" as="sourcePoint" />
            <mxPoint x="205" y="350.46000000000004" as="targetPoint" />
          </mxGeometry>
        </mxCell>
        <mxCell id="EgkcAiieyC2Qmeuv6FJ1-25" value="Возврат отображения " style="verticalAlign=bottom;endArrow=open;shadow=0;strokeWidth=1;entryX=1.183;entryY=0.181;entryDx=0;entryDy=0;entryPerimeter=0;dashed=1;endFill=0;" edge="1" parent="1">
          <mxGeometry x="-0.0207" relative="1" as="geometry">
            <mxPoint x="204.99999999999997" y="370.00000000000006" as="sourcePoint" />
            <mxPoint x="51.83" y="370.00000000000006" as="targetPoint" />
            <mxPoint as="offset" />
          </mxGeometry>
        </mxCell>
        <mxCell id="EgkcAiieyC2Qmeuv6FJ1-18" value="" style="points=[];perimeter=orthogonalPerimeter;rounded=0;shadow=0;strokeWidth=1;" vertex="1" parent="1">
          <mxGeometry x="415" y="280" width="10" height="50" as="geometry" />
        </mxCell>
        <mxCell id="EgkcAiieyC2Qmeuv6FJ1-30" value="Запрос данных о посте из БД" style="verticalAlign=bottom;endArrow=block;shadow=0;strokeWidth=1;entryX=-0.028;entryY=0.17;entryDx=0;entryDy=0;entryPerimeter=0;" edge="1" parent="1">
          <mxGeometry relative="1" as="geometry">
            <mxPoint x="215.00000000000006" y="351.5" as="sourcePoint" />
            <mxPoint x="414.52000000000004" y="350" as="targetPoint" />
          </mxGeometry>
        </mxCell>
        <mxCell id="EgkcAiieyC2Qmeuv6FJ1-32" value="Оставить комментарий к посту" style="verticalAlign=bottom;endArrow=block;shadow=0;strokeWidth=1;entryX=-0.02;entryY=0.318;entryDx=0;entryDy=0;entryPerimeter=0;" edge="1" parent="1">
          <mxGeometry relative="1" as="geometry">
            <mxPoint x="50.200000000000045" y="420" as="sourcePoint" />
            <mxPoint x="205" y="420.46000000000004" as="targetPoint" />
          </mxGeometry>
        </mxCell>
        <mxCell id="EgkcAiieyC2Qmeuv6FJ1-33" value="Отправить запрос на добавление&#xa;комментария" style="verticalAlign=bottom;endArrow=block;shadow=0;strokeWidth=1;entryX=-0.119;entryY=0.241;entryDx=0;entryDy=0;entryPerimeter=0;" edge="1" parent="1" target="EgkcAiieyC2Qmeuv6FJ1-34">
          <mxGeometry relative="1" as="geometry">
            <mxPoint x="215.48" y="421.5" as="sourcePoint" />
            <mxPoint x="415" y="420" as="targetPoint" />
          </mxGeometry>
        </mxCell>
        <mxCell id="EgkcAiieyC2Qmeuv6FJ1-34" value="" style="points=[];perimeter=orthogonalPerimeter;rounded=0;shadow=0;strokeWidth=1;" vertex="1" parent="1">
          <mxGeometry x="415" y="410" width="10" height="50" as="geometry" />
        </mxCell>
        <mxCell id="EgkcAiieyC2Qmeuv6FJ1-36" value="Возврат результата" style="verticalAlign=bottom;endArrow=open;shadow=0;strokeWidth=1;dashed=1;endFill=0;exitX=0.132;exitY=0.663;exitDx=0;exitDy=0;exitPerimeter=0;entryX=1.17;entryY=0.663;entryDx=0;entryDy=0;entryPerimeter=0;" edge="1" parent="1" source="EgkcAiieyC2Qmeuv6FJ1-34" target="EgkcAiieyC2Qmeuv6FJ1-27">
          <mxGeometry relative="1" as="geometry">
            <mxPoint x="419.5" y="440" as="sourcePoint" />
            <mxPoint x="215" y="440" as="targetPoint" />
          </mxGeometry>
        </mxCell>
        <mxCell id="EgkcAiieyC2Qmeuv6FJ1-38" value="Поставить/Убрать лайк" style="verticalAlign=bottom;endArrow=block;shadow=0;strokeWidth=1;entryX=-0.02;entryY=0.318;entryDx=0;entryDy=0;entryPerimeter=0;" edge="1" parent="1">
          <mxGeometry relative="1" as="geometry">
            <mxPoint x="50.200000000000045" y="490" as="sourcePoint" />
            <mxPoint x="205" y="490.46000000000004" as="targetPoint" />
          </mxGeometry>
        </mxCell>
        <mxCell id="EgkcAiieyC2Qmeuv6FJ1-39" value="Возврат отображения" style="verticalAlign=bottom;endArrow=open;shadow=0;strokeWidth=1;entryX=0.964;entryY=0.457;entryDx=0;entryDy=0;entryPerimeter=0;dashed=1;endFill=0;exitX=-0.14;exitY=0.787;exitDx=0;exitDy=0;exitPerimeter=0;" edge="1" parent="1">
          <mxGeometry relative="1" as="geometry">
            <mxPoint x="205.00000000000003" y="521.44" as="sourcePoint" />
            <mxPoint x="51.039999999999985" y="520" as="targetPoint" />
          </mxGeometry>
        </mxCell>
        <mxCell id="EgkcAiieyC2Qmeuv6FJ1-40" value="Отправить запрос в БД" style="verticalAlign=bottom;endArrow=block;shadow=0;strokeWidth=1;entryX=0.024;entryY=0.227;entryDx=0;entryDy=0;entryPerimeter=0;" edge="1" parent="1" target="EgkcAiieyC2Qmeuv6FJ1-41">
          <mxGeometry relative="1" as="geometry">
            <mxPoint x="215.20000000000005" y="490" as="sourcePoint" />
            <mxPoint x="414" y="489" as="targetPoint" />
          </mxGeometry>
        </mxCell>
        <mxCell id="EgkcAiieyC2Qmeuv6FJ1-41" value="" style="points=[];perimeter=orthogonalPerimeter;rounded=0;shadow=0;strokeWidth=1;" vertex="1" parent="1">
          <mxGeometry x="415" y="480" width="10" height="50" as="geometry" />
        </mxCell>
      </root>
    </mxGraphModel>
  </diagram>
</mxfile>
